<svg width="24" height="24" viewBox="0 0 24 24" fill="none" xmlns="http://www.w3.org/2000/svg">
<g id="Iconly/Bold/Calendar">
<g id="Calendar">
<path id="Combined Shape" fill-rule="evenodd" clip-rule="evenodd" d="M16.5 2.71693V3.7174C16.9661 3.76334 17.427 3.85639 17.8767 3.99573V3.98861C17.9026 4.0004 17.9225 4.00741 17.9565 4.01944L17.9624 4.02154C17.9782 4.02713 17.993 4.03271 18.0075 4.03823C18.0278 4.0459 18.0477 4.05345 18.0697 4.0607C18.1645 4.09182 18.2532 4.1285 18.3445 4.16623L18.3605 4.17284C18.4026 4.18763 18.4422 4.20598 18.478 4.22251L18.5114 4.23781C18.5869 4.27074 18.6641 4.3099 18.7259 4.34283C18.767 4.36418 18.8071 4.38702 18.8447 4.40845L18.8447 4.40849L18.8448 4.40851L18.8448 4.40853C18.8652 4.42013 18.8848 4.43131 18.9034 4.44162C18.9342 4.45859 18.9609 4.47675 18.9866 4.49422L18.9866 4.49423C19.0054 4.50698 19.0236 4.51935 19.0424 4.53062C19.3015 4.69794 19.5434 4.89374 19.7621 5.11356L19.7698 5.12691C19.8504 5.2079 19.9268 5.29334 19.998 5.38323L20.004 5.39569C20.7048 6.36489 21.0548 7.55926 20.993 8.76876V9.15591H21V16.9102C21 20.2916 19.1116 22 15.3691 22H8.62232C4.88841 22 3 20.2916 3 16.9102V9.15591L3.00677 9.15591V8.77232C2.94586 7.56282 3.29756 6.36934 3.99924 5.40103L4.0121 5.38857C4.05575 5.33491 4.10176 5.28264 4.14886 5.22914C4.17675 5.19746 4.20502 5.16535 4.23342 5.13225L4.24628 5.1189C4.46245 4.8973 4.70177 4.70239 4.95997 4.53596C4.97886 4.52467 4.99691 4.513 5.01475 4.50147C5.04471 4.48211 5.07407 4.46314 5.10579 4.44696L5.27735 4.34817C5.31209 4.33171 5.34832 4.31369 5.38456 4.29567L5.38458 4.29566L5.38459 4.29565C5.42083 4.27763 5.45707 4.25961 5.4918 4.24315C5.5171 4.23336 5.5424 4.22202 5.5677 4.21067L5.56771 4.21067L5.56772 4.21067L5.56772 4.21067C5.59302 4.19932 5.61833 4.18797 5.64363 4.17818C5.73885 4.13813 5.84007 4.09897 5.94129 4.06604C5.9756 4.04913 6.01163 4.03578 6.04851 4.02688C6.06361 4.0193 6.07898 4.01402 6.09526 4.00842L6.09527 4.00842C6.10766 4.00416 6.12058 3.99972 6.13429 3.99395V3.99929C6.57985 3.86095 7.0374 3.76741 7.5 3.72187V2.72835C7.5 2.32954 7.82169 2.00708 8.21955 2.00708C8.61741 2.00708 8.94 2.32954 8.94 2.72835V5.87209C8.94 6.27089 8.61741 6.59425 8.21955 6.59425C7.82169 6.59425 7.5 6.27089 7.5 5.87209V5.14528C7.02767 5.19258 6.56388 5.3101 6.124 5.49626C4.92909 6.03382 4.39211 7.08312 4.39211 8.76876V9.15591L19.6085 9.15591V8.75897C19.6377 8.0452 19.4945 7.33499 19.1908 6.6933C18.8991 6.14418 18.4325 5.71787 17.8689 5.48647C17.4325 5.2986 16.971 5.1798 16.5 5.13414V5.86846C16.5 6.26555 16.1778 6.58717 15.78 6.58717C15.3822 6.58717 15.06 6.26555 15.06 5.86846V5.08152H8.947V3.65131H15.06V2.72412C15.0564 2.32703 15.3768 2.00271 15.7746 2.00002C16.1724 1.99732 16.4973 2.31625 16.5 2.71333V2.71693ZM7.88412 14.3166C7.42918 14.3166 7.06009 13.9359 7.06009 13.4668C7.06009 12.9976 7.42918 12.6081 7.88412 12.6081H7.8927C8.33906 12.6081 8.70815 12.9888 8.70815 13.4579C8.71674 13.9271 8.34764 14.3166 7.88412 14.3166ZM12.0043 14.3166C11.5494 14.3166 11.1717 13.9359 11.1717 13.4668C11.1717 12.9976 11.5408 12.617 11.9957 12.6081H12.0043C12.4592 12.617 12.8283 12.9976 12.8283 13.4579C12.8283 13.9359 12.4592 14.3166 12.0043 14.3166ZM15.2918 13.4668C15.2918 13.9359 15.6609 14.3166 16.1159 14.3166C16.5708 14.3166 16.9399 13.9359 16.9399 13.4668C16.9399 12.9976 16.5708 12.617 16.1159 12.617C15.6524 12.617 15.2918 12.9976 15.2918 13.4668ZM15.2833 17.096C15.2918 17.5652 15.6609 17.9458 16.1159 17.9458C16.5708 17.9458 16.9399 17.5652 16.9399 17.096C16.9399 16.6269 16.5708 16.2463 16.1159 16.2463H16.1073C15.6524 16.2463 15.2833 16.6269 15.2833 17.096ZM11.1717 17.096C11.1717 17.5652 11.5494 17.9458 12.0043 17.9458C12.4592 17.9458 12.8283 17.5652 12.8283 17.0872C12.8197 16.6269 12.4592 16.2463 12.0043 16.2374H11.9957C11.5408 16.2463 11.1717 16.6269 11.1717 17.096ZM7.06009 17.096C7.06009 17.5652 7.42918 17.9458 7.88412 17.9458C8.33906 17.9458 8.70815 17.5563 8.70815 17.0872C8.70815 16.618 8.33906 16.2374 7.88412 16.2374C7.4206 16.2374 7.0515 16.6269 7.06009 17.096Z" fill="#9693C8"/>
</g>
</g>
</svg>
