<svg width="24" height="24" viewBox="0 0 24 24" fill="none" xmlns="http://www.w3.org/2000/svg">
<g id="Iconly/Light/Chat">
<g id="Chat">
<path id="Path" fill-rule="evenodd" clip-rule="evenodd" d="M12.0568 2.00017C8.54687 1.98599 5.28557 3.80713 3.4605 6.80044C1.63543 9.79375 1.51292 13.5224 3.13757 16.6287L3.33789 17.0192C3.50209 17.3265 3.53644 17.6865 3.43329 18.0192C3.14742 18.7785 2.90849 19.5545 2.71784 20.343C2.71784 20.743 2.83231 20.9716 3.26158 20.962C4.0219 20.7941 4.77068 20.5778 5.50332 20.3144C5.81886 20.2275 6.15437 20.2476 6.45725 20.3716C6.73389 20.5049 7.2967 20.8478 7.31578 20.8478C10.9915 22.7805 15.4808 22.2473 18.5998 19.5075C21.7187 16.7677 22.8199 12.3901 21.3676 8.50413C19.9153 4.61818 16.2111 2.03062 12.0568 2.00017V2.00017Z" stroke="#200E32" stroke-width="1.5" stroke-linecap="round" stroke-linejoin="round"/>
<path id="Oval" fill-rule="evenodd" clip-rule="evenodd" d="M7.28718 12.4763C7.5506 12.4763 7.76414 12.2631 7.76414 12.0001C7.76414 11.7372 7.5506 11.524 7.28718 11.524C7.02376 11.524 6.81021 11.7372 6.81021 12.0001C6.81021 12.2631 7.02376 12.4763 7.28718 12.4763Z" fill="#200E32" stroke="#200E32" stroke-width="1.5" stroke-linecap="round" stroke-linejoin="round"/>
<path id="Oval_2" fill-rule="evenodd" clip-rule="evenodd" d="M12.0568 12.4763C12.3203 12.4763 12.5338 12.2631 12.5338 12.0001C12.5338 11.7372 12.3203 11.524 12.0568 11.524C11.7934 11.524 11.5799 11.7372 11.5799 12.0001C11.5799 12.2631 11.7934 12.4763 12.0568 12.4763Z" fill="#200E32" stroke="#200E32" stroke-width="1.5" stroke-linecap="round" stroke-linejoin="round"/>
<path id="Oval_3" fill-rule="evenodd" clip-rule="evenodd" d="M16.8265 12.4763C17.0899 12.4763 17.3034 12.2631 17.3034 12.0001C17.3034 11.7372 17.0899 11.524 16.8265 11.524C16.5631 11.524 16.3495 11.7372 16.3495 12.0001C16.3495 12.2631 16.5631 12.4763 16.8265 12.4763Z" fill="#200E32" stroke="#200E32" stroke-width="1.5" stroke-linecap="round" stroke-linejoin="round"/>
</g>
</g>
</svg>
