<svg width="52" height="55" viewBox="0 0 52 55" fill="none" xmlns="http://www.w3.org/2000/svg">
<path d="M20.3815 21.5583H31.3439C31.6312 21.5583 31.9067 21.4451 32.1099 21.2437C32.3131 21.0422 32.4272 20.769 32.4272 20.4841C32.4272 20.1992 32.3131 19.9259 32.1099 19.7245C31.9067 19.523 31.6312 19.4099 31.3439 19.4099H20.3815C20.0942 19.4099 19.8186 19.523 19.6155 19.7245C19.4123 19.9259 19.2982 20.1992 19.2982 20.4841C19.2982 20.769 19.4123 21.0422 19.6155 21.2437C19.8186 21.4451 20.0942 21.5583 20.3815 21.5583Z" fill="#383943"/>
<path d="M31.963 29.6135H20.3815C20.0942 29.6135 19.8186 29.7266 19.6155 29.9281C19.4123 30.1296 19.2982 30.4028 19.2982 30.6877C19.2982 30.9726 19.4123 31.2458 19.6155 31.4473C19.8186 31.6487 20.0942 31.7619 20.3815 31.7619H31.963C32.2503 31.7619 32.5259 31.6487 32.729 31.4473C32.9322 31.2458 33.0463 30.9726 33.0463 30.6877C33.0463 30.4028 32.9322 30.1296 32.729 29.9281C32.5259 29.7266 32.2503 29.6135 31.963 29.6135Z" fill="#383943"/>
<path d="M31.963 39.8169H20.3815C20.0942 39.8169 19.8186 39.9301 19.6155 40.1315C19.4123 40.333 19.2982 40.6062 19.2982 40.8911C19.2982 41.176 19.4123 41.4492 19.6155 41.6507C19.8186 41.8522 20.0942 41.9653 20.3815 41.9653H31.963C32.2503 41.9653 32.5259 41.8522 32.729 41.6507C32.9322 41.4492 33.0463 41.176 33.0463 40.8911C33.0463 40.6062 32.9322 40.333 32.729 40.1315C32.5259 39.9301 32.2503 39.8169 31.963 39.8169Z" fill="#383943"/>
<path d="M40.9565 45.6436C40.591 45.6436 40.2299 45.6262 39.8732 45.5913V51.6899C39.8728 51.9981 39.7492 52.2937 39.5294 52.5117C39.3096 52.7296 39.0116 52.8523 38.7007 52.8526H3.33927C3.02838 52.8523 2.73031 52.7297 2.51047 52.5118C2.29063 52.2938 2.16698 51.9982 2.16667 51.69V8.81543C2.16704 8.5072 2.29069 8.21169 2.51049 7.99374C2.7303 7.77578 3.02831 7.65317 3.33916 7.6528H10.0858V10.3091H5.93342C5.6461 10.3091 5.37055 10.4223 5.16738 10.6238C4.96422 10.8252 4.85008 11.0984 4.85008 11.3833V49.1221C4.85008 49.407 4.96422 49.6802 5.16738 49.8816C5.37055 50.0831 5.6461 50.1963 5.93342 50.1963H36.1064C36.3937 50.1963 36.6693 50.0831 36.8724 49.8816C37.0756 49.6802 37.1898 49.407 37.1898 49.1221V44.9875C36.4303 44.7131 35.7037 44.3565 35.0231 43.924V48.0482H7.01675V12.4576H35.0231V27.5248C35.7036 27.0923 36.4302 26.7356 37.1898 26.4613V11.3833C37.1898 11.0984 37.0756 10.8252 36.8724 10.6238C36.6693 10.4223 36.3937 10.3091 36.1064 10.3091H31.9537V7.6528H38.7006C39.0114 7.65314 39.3095 7.77574 39.5293 7.9937C39.7491 8.21167 39.8727 8.50719 39.8731 8.81543V25.8575C40.2295 25.8229 40.5906 25.8055 40.9564 25.8052C41.3222 25.8049 41.6833 25.8223 42.0397 25.8575V8.81543C42.0387 7.93759 41.6866 7.09598 41.0606 6.47525C40.4346 5.85452 39.5859 5.50536 38.7006 5.50436H26.7717C26.7187 4.02679 26.0895 2.62726 25.0167 1.60052C23.9438 0.573791 22.5109 0 21.0199 0C19.5288 0 18.096 0.573791 17.0231 1.60052C15.9502 2.62726 15.321 4.02679 15.2681 5.50436H3.33927C2.45396 5.50533 1.60518 5.85448 0.979164 6.47521C0.353144 7.09595 0.00100361 7.93757 0 8.81543V51.69C0.00100361 52.5678 0.353144 53.4095 0.979164 54.0302C1.60518 54.6509 2.45396 55.0001 3.33927 55.001H38.7007C39.586 55 40.4347 54.6509 41.0607 54.0302C41.6867 53.4094 42.0388 52.5678 42.0398 51.69V45.5909C41.6834 45.6254 41.3223 45.6433 40.9565 45.6436ZM12.2525 7.6528H16.431C16.5906 7.65292 16.7483 7.61807 16.8927 7.55074C17.0372 7.48341 17.1648 7.38527 17.2666 7.26332C17.3683 7.14138 17.4416 6.99866 17.4812 6.84536C17.5209 6.69205 17.5259 6.53196 17.4958 6.37652C17.3965 5.86187 17.4129 5.33181 17.5441 4.82421C17.6752 4.3166 17.9178 3.84398 18.2545 3.44012C18.5913 3.03626 19.0138 2.71112 19.4919 2.48793C19.97 2.26474 20.4919 2.14901 21.0203 2.14901C21.5488 2.14901 22.0707 2.26474 22.5488 2.48793C23.0269 2.71112 23.4494 3.03626 23.7862 3.44012C24.1229 3.84398 24.3655 4.3166 24.4966 4.82421C24.6278 5.33181 24.6442 5.86187 24.5449 6.37652C24.5148 6.5319 24.5198 6.69195 24.5593 6.84521C24.5989 6.99848 24.6721 7.14119 24.7738 7.26314C24.8754 7.38509 25.003 7.48327 25.1473 7.55067C25.2917 7.61807 25.4493 7.65302 25.6088 7.65302H29.7874V10.3091H12.2525V7.6528Z" fill="#383943"/>
<path d="M40.9565 46.7185C47.0557 46.7185 52 41.7965 52 35.7249C52 29.6532 47.0557 24.7312 40.9565 24.7312C34.8573 24.7312 29.913 29.6532 29.913 35.7249C29.913 41.7965 34.8573 46.7185 40.9565 46.7185Z" fill="#E2C4FF"/>
<path d="M42.9771 37.302H40.9565C40.6692 37.302 40.3936 37.1888 40.1905 36.9874C39.9873 36.7859 39.8732 36.5127 39.8732 36.2278V32.8754C39.8732 32.5905 39.9873 32.3172 40.1905 32.1158C40.3936 31.9143 40.6692 31.8011 40.9565 31.8011C41.2438 31.8011 41.5194 31.9143 41.7225 32.1158C41.9257 32.3172 42.0398 32.5905 42.0398 32.8754V35.1536H42.9771C43.2645 35.1536 43.54 35.2667 43.7432 35.4682C43.9463 35.6697 44.0605 35.9429 44.0605 36.2278C44.0605 36.5127 43.9463 36.7859 43.7432 36.9874C43.54 37.1888 43.2645 37.302 42.9771 37.302Z" fill="#383943"/>
<path d="M16.1539 21.1299C16.5089 19.6408 15.5793 18.1483 14.0776 17.7963C12.5758 17.4443 11.0707 18.3661 10.7157 19.8552C10.3607 21.3443 11.2903 22.8367 12.792 23.1887C14.2937 23.5408 15.7989 22.619 16.1539 21.1299Z" fill="#E2C4FF"/>
<path d="M15.4059 42.8474C16.497 41.7655 16.497 40.0113 15.4059 38.9293C14.3147 37.8474 12.5456 37.8474 11.4545 38.9293C10.3634 40.0113 10.3634 41.7655 11.4545 42.8474C12.5456 43.9294 14.3147 43.9294 15.4059 42.8474Z" fill="#E2C4FF"/>
<path d="M16.1515 31.336C16.5065 29.8469 15.5769 28.3544 14.0752 28.0024C12.5735 27.6504 11.0683 28.5722 10.7133 30.0612C10.3583 31.5503 11.2879 33.0428 12.7896 33.3948C14.2914 33.7468 15.7965 32.825 16.1515 31.336Z" fill="#E2C4FF"/>
</svg>
