<svg width="75" height="36" viewBox="0 0 75 36" fill="none" xmlns="http://www.w3.org/2000/svg">
<rect x="15" width="50" height="5" rx="2.5" fill="#9693C8"/>
<rect x="9" y="8.26221" width="49.0574" height="4.64754" rx="2.32377" fill="#9693C8"/>
<rect x="18.2951" y="15.4917" width="53.7049" height="4.64754" rx="2.32377" fill="#9693C8"/>
<path fill-rule="evenodd" clip-rule="evenodd" d="M19.2857 4.71069H54.9643C53.972 4.71069 53.1675 5.51513 53.1675 6.50746C53.1675 7.49978 53.972 8.30422 54.9643 8.30422H19.2857C20.278 8.30422 21.0825 7.49978 21.0825 6.50746C21.0825 5.51513 20.278 4.71069 19.2857 4.71069Z" fill="#9693C8"/>
<path fill-rule="evenodd" clip-rule="evenodd" d="M56.25 15.9192H24.75C25.6261 15.9192 26.3363 15.209 26.3363 14.3329C26.3363 13.4568 25.6261 12.7466 24.75 12.7466H56.25C55.3739 12.7466 54.6637 13.4568 54.6637 14.3329C54.6637 15.209 55.3739 15.9192 56.25 15.9192Z" fill="#9693C8"/>
<rect width="50" height="5.17908" rx="2.58954" transform="matrix(1 0 0 -1 8 35.8608)" fill="#9693C8"/>
<rect width="49.0574" height="4.814" rx="2.407" transform="matrix(1 0 0 -1 2 27.3025)" fill="#9693C8"/>
<rect width="53.7049" height="4.814" rx="2.407" transform="matrix(1 0 0 -1 11.2951 19.8142)" fill="#9693C8"/>
<path fill-rule="evenodd" clip-rule="evenodd" d="M10.489 29.1201C10.489 30.137 11.3046 30.9634 12.3173 30.9809C13.2951 30.9634 14.0825 30.137 14.0825 29.1201C14.0825 28.1032 13.2951 27.2767 12.3173 27.2593C11.3046 27.2767 10.489 28.1032 10.489 29.1201ZM47.9327 27.2593C47.9218 27.2591 47.9109 27.259 47.8999 27.259H12.3501L12.3173 27.2593L12.2857 27.259C11.2934 27.259 10.489 28.0922 10.489 29.1201C10.489 30.148 11.2934 30.9812 12.2857 30.9812L12.3173 30.9809L12.3501 30.9812H47.8999C47.9109 30.9812 47.9218 30.9811 47.9327 30.9809C46.9549 30.9634 46.1675 30.137 46.1675 29.1201C46.1675 28.1032 46.9549 27.2767 47.9327 27.2593ZM49.7611 29.1201C49.7611 28.0922 48.9566 27.259 47.9643 27.259C47.9537 27.259 47.9432 27.2591 47.9327 27.2593C48.9454 27.2767 49.7611 28.1032 49.7611 29.1201ZM49.7611 29.1201C49.7611 30.148 48.9566 30.9812 47.9643 30.9812C47.9537 30.9812 47.9432 30.9811 47.9327 30.9809C48.9454 30.9634 49.7611 30.137 49.7611 29.1201Z" fill="#9693C8"/>
<path fill-rule="evenodd" clip-rule="evenodd" d="M16.1637 21.0148C16.1637 21.9126 16.8838 22.6423 17.7779 22.6577C18.6411 22.6423 19.3363 21.9126 19.3363 21.0148C19.3363 20.117 18.6411 19.3873 17.7779 19.3719C16.8838 19.3873 16.1637 20.117 16.1637 21.0148ZM49.2221 19.3719C49.2125 19.3717 49.2028 19.3717 49.1932 19.3717H17.8068L17.7779 19.3719L17.75 19.3717C16.8739 19.3717 16.1637 20.1073 16.1637 21.0148C16.1637 21.9223 16.8739 22.658 17.75 22.658L17.7779 22.6577L17.8068 22.658H49.1932C49.2028 22.658 49.2125 22.6579 49.2221 22.6577C48.3589 22.6423 47.6637 21.9126 47.6637 21.0148C47.6637 20.117 48.3589 19.3873 49.2221 19.3719ZM50.8363 21.0148C50.8363 20.1073 50.1261 19.3717 49.25 19.3717C49.2407 19.3717 49.2314 19.3717 49.2221 19.3719C50.1162 19.3873 50.8363 20.117 50.8363 21.0148ZM50.8363 21.0148C50.8363 21.9223 50.1261 22.658 49.25 22.658C49.2407 22.658 49.2314 22.6579 49.2221 22.6577C50.1162 22.6423 50.8363 21.9126 50.8363 21.0148Z" fill="#9693C8"/>
<circle cx="2" cy="34" r="2" fill="#9693C8"/>
<circle cx="73" cy="3" r="2" fill="#9693C8"/>
<rect x="3" y="9" width="5" height="3" rx="1.5" fill="#9693C8"/>
</svg>
