<svg width="20" height="20" viewBox="0 0 20 20" fill="none" xmlns="http://www.w3.org/2000/svg">
<path fill-rule="evenodd" clip-rule="evenodd" d="M10 0C12.649 0 15.199 1.05 17.069 2.93C18.949 4.811 20 7.35 20 10.01C20 13.51 18.159 16.76 15.159 18.57C12.159 20.38 8.429 20.48 5.33 18.83H5.299C5.12783 18.7613 4.97568 18.6631 4.82433 18.5654C4.71129 18.4925 4.59871 18.4199 4.479 18.36C4.17 18.23 3.819 18.21 3.5 18.311C2.759 18.57 2.009 18.78 1.239 18.96C0.839 18.97 0.719 18.73 0.719 18.34C0.899 17.55 1.139 16.769 1.42 16.01C1.529 15.68 1.5 15.33 1.33 15.019L1.13 14.63C0.389 13.22 0 11.65 0 10.061V10C0 7.35 1.049 4.8 2.929 2.93C4.809 1.05 7.349 0 10 0ZM5.389 11.29C4.679 11.29 4.109 10.71 4.109 10.01C4.109 9.3 4.679 8.73 5.389 8.73C6.089 8.73 6.67 9.3 6.67 10.01C6.67 10.71 6.089 11.29 5.389 11.29ZM8.719 10.01C8.719 10.71 9.29 11.29 10 11.29C10.71 11.29 11.279 10.71 11.279 10.01C11.279 9.3 10.71 8.73 10 8.73C9.29 8.73 8.719 9.3 8.719 10.01ZM13.33 10.01C13.33 10.71 13.909 11.29 14.609 11.29C15.319 11.29 15.889 10.71 15.889 10.01C15.889 9.3 15.319 8.73 14.609 8.73C13.909 8.73 13.33 9.3 13.33 10.01Z" fill="#A3A1A1"/>
</svg>
