<svg width="20" height="20" viewBox="0 0 20 20" fill="none" xmlns="http://www.w3.org/2000/svg">
<path fill-rule="evenodd" clip-rule="evenodd" d="M13.8498 0.500711C14.4808 0.500711 15.1108 0.589711 15.7098 0.790711C19.4008 1.99071 20.7308 6.04071 19.6198 9.58071C18.9898 11.3897 17.9598 13.0407 16.6108 14.3897C14.6798 16.2597 12.5608 17.9197 10.2798 19.3497L10.0298 19.5007L9.7698 19.3397C7.4808 17.9197 5.3498 16.2597 3.4008 14.3797C2.0608 13.0307 1.0298 11.3897 0.389803 9.58071C-0.740197 6.04071 0.589803 1.99071 4.3208 0.769711C4.6108 0.669711 4.9098 0.599711 5.2098 0.560711H5.3298C5.6108 0.519711 5.8898 0.500711 6.1698 0.500711H6.2798C6.9098 0.519711 7.5198 0.629711 8.1108 0.830711H8.1698C8.2098 0.849711 8.2398 0.870711 8.2598 0.889711C8.4808 0.960711 8.6898 1.04071 8.8898 1.15071L9.2698 1.32071C9.36162 1.36968 9.46469 1.44451 9.55376 1.50918C9.6102 1.55016 9.66102 1.58705 9.6998 1.61071C9.71612 1.62034 9.73271 1.63002 9.74943 1.63978C9.83517 1.68983 9.92449 1.74197 9.9998 1.79971C11.1108 0.950711 12.4598 0.490711 13.8498 0.500711ZM16.5098 7.70071C16.9198 7.68971 17.2698 7.36071 17.2998 6.93971V6.82071C17.3298 5.41971 16.4808 4.15071 15.1898 3.66071C14.7798 3.51971 14.3298 3.74071 14.1798 4.16071C14.0398 4.58071 14.2598 5.04071 14.6798 5.18971C15.3208 5.42971 15.7498 6.06071 15.7498 6.75971V6.79071C15.7308 7.01971 15.7998 7.24071 15.9398 7.41071C16.0798 7.58071 16.2898 7.67971 16.5098 7.70071Z" fill="#200E32"/>
</svg>
