<svg width="57" height="51" viewBox="0 0 57 51" fill="none" xmlns="http://www.w3.org/2000/svg">
<path d="M52.9137 0H4.08641C3.00184 0.00237455 1.9625 0.43777 1.19641 1.21066C0.43032 1.98355 4.60264e-05 3.03082 -1.03752e-05 4.1227V47.5888C-0.000722297 48.4914 0.354222 49.3574 0.986958 49.9969C1.61969 50.6364 2.47855 50.9972 3.37513 51H53.6249C54.5215 50.9972 55.3804 50.6365 56.0131 49.997C56.6459 49.3575 57.0008 48.4914 57.0001 47.5888V4.1227C57.0001 3.03083 56.5698 1.98356 55.8038 1.21067C55.0377 0.437773 53.9984 0.00237459 52.9138 0H52.9137ZM2.22656 4.1227C2.22599 3.62514 2.42149 3.14768 2.77015 2.79504C3.11882 2.44241 3.59219 2.2434 4.08641 2.24168H52.9137C53.4079 2.2434 53.8813 2.44241 54.2299 2.79504C54.5786 3.14768 54.7741 3.62514 54.7735 4.1227V10.7841H2.22656V4.1227ZM54.7735 47.5888C54.7749 47.8971 54.6548 48.1934 54.4395 48.4127C54.2241 48.6319 53.9312 48.7563 53.625 48.7584H3.37513C3.06886 48.7563 2.77592 48.632 2.56059 48.4127C2.34527 48.1934 2.22513 47.8971 2.22656 47.5888V13.0257H54.7735V47.5888Z" fill="#383943"/>
<path d="M36.624 5.39191H35.1284C34.8332 5.39191 34.55 5.50999 34.3412 5.72018C34.1324 5.93037 34.0152 6.21544 34.0152 6.51269C34.0152 6.80994 34.1324 7.09502 34.3412 7.30521C34.55 7.5154 34.8332 7.63348 35.1284 7.63348H36.624C36.9193 7.63348 37.2024 7.5154 37.4112 7.30521C37.62 7.09502 37.7373 6.80994 37.7373 6.51269C37.7373 6.21544 37.62 5.93037 37.4112 5.72018C37.2024 5.50999 36.9193 5.39191 36.624 5.39191Z" fill="#383943"/>
<path d="M43.5405 5.39191H42.0455C41.7502 5.39191 41.4671 5.50999 41.2583 5.72018C41.0495 5.93037 40.9322 6.21544 40.9322 6.51269C40.9322 6.80994 41.0495 7.09502 41.2583 7.30521C41.4671 7.5154 41.7502 7.63348 42.0455 7.63348H43.5405C43.8358 7.63348 44.1189 7.5154 44.3277 7.30521C44.5365 7.09502 44.6538 6.80994 44.6538 6.51269C44.6538 6.21544 44.5365 5.93037 44.3277 5.72018C44.1189 5.50999 43.8358 5.39191 43.5405 5.39191Z" fill="#383943"/>
<path d="M50.458 5.39191H48.9622C48.6669 5.39191 48.3838 5.50999 48.175 5.72018C47.9662 5.93037 47.8489 6.21544 47.8489 6.51269C47.8489 6.80994 47.9662 7.09502 48.175 7.30521C48.3838 7.5154 48.6669 7.63348 48.9622 7.63348H50.4577C50.7529 7.63348 51.0361 7.5154 51.2449 7.30521C51.4537 7.09502 51.571 6.80994 51.571 6.51269C51.571 6.21544 51.4537 5.93037 51.2449 5.72018C51.0361 5.50999 50.7529 5.39191 50.4577 5.39191H50.458Z" fill="#383943"/>
<path d="M18.7272 5.39191H7.93403C7.63877 5.39191 7.35561 5.50999 7.14682 5.72018C6.93804 5.93037 6.82075 6.21544 6.82075 6.51269C6.82075 6.80994 6.93804 7.09502 7.14682 7.30521C7.35561 7.5154 7.63877 7.63348 7.93403 7.63348H18.7272C19.0225 7.63348 19.3056 7.5154 19.5144 7.30521C19.7232 7.09502 19.8405 6.80994 19.8405 6.51269C19.8405 6.21544 19.7232 5.93037 19.5144 5.72018C19.3056 5.50999 19.0225 5.39191 18.7272 5.39191Z" fill="#383943"/>
<path d="M28.5001 45.3843C36.394 45.3843 42.7933 38.9419 42.7933 30.9948C42.7933 23.0476 36.394 16.6052 28.5001 16.6052C20.6061 16.6052 14.2068 23.0476 14.2068 30.9948C14.2068 38.9419 20.6061 45.3843 28.5001 45.3843Z" fill="#B2F0FB"/>
<path d="M32.952 30.903C33.6354 30.0559 34.0665 29.0312 34.1951 27.9476C34.3238 26.864 34.1448 25.7659 33.6789 24.7806C33.213 23.7952 32.4793 22.9629 31.5628 22.3802C30.6463 21.7974 29.5845 21.4881 28.5005 21.488C27.4165 21.4879 26.3547 21.797 25.4381 22.3796C24.5215 22.9622 23.7876 23.7944 23.3216 24.7797C22.8555 25.7649 22.6764 26.863 22.8048 27.9466C22.9333 29.0302 23.3642 30.055 24.0475 30.9022C23.255 31.3346 22.5929 31.9739 22.1305 32.7529C21.6682 33.5319 21.4228 34.4218 21.4201 35.3293V39.1707C21.4201 39.4679 21.5374 39.753 21.7462 39.9632C21.955 40.1734 22.2382 40.2915 22.5334 40.2915H34.4673C34.7625 40.2915 35.0457 40.1734 35.2545 39.9632C35.4632 39.753 35.5805 39.4679 35.5805 39.1707V35.3293C35.5772 34.4219 35.3314 33.5321 34.869 32.7532C34.4067 31.9743 33.7447 31.335 32.9525 30.9022L32.952 30.903ZM28.5001 23.7333C29.1941 23.7333 29.8725 23.9405 30.4496 24.3287C31.0266 24.7168 31.4764 25.2686 31.742 25.9141C32.0076 26.5596 32.0771 27.2699 31.9417 27.9552C31.8063 28.6405 31.4721 29.2699 30.9814 29.764C30.4906 30.258 29.8654 30.5945 29.1847 30.7308C28.504 30.8672 27.7985 30.7972 27.1573 30.5299C26.5161 30.2625 25.968 29.8097 25.5824 29.2288C25.1968 28.6478 24.991 27.9648 24.991 27.2661C24.992 26.3295 25.362 25.4315 26.0199 24.7692C26.6778 24.1069 27.5697 23.7344 28.5001 23.7333ZM33.354 38.0503H23.6461V35.3293C23.648 34.6306 23.9094 33.9578 24.3788 33.4432C24.8482 32.9286 25.4918 32.6093 26.1832 32.5479C26.9129 32.8724 27.7019 33.04 28.4996 33.04C29.2973 33.04 30.0863 32.8724 30.816 32.5479C31.5073 32.6097 32.1507 32.9291 32.6202 33.4436C33.0897 33.9581 33.3514 34.6306 33.354 35.3293V38.0499V38.0503Z" fill="#383943"/>
</svg>
