<svg width="57" height="54" viewBox="0 0 57 54" fill="none" xmlns="http://www.w3.org/2000/svg">
<path d="M36.1211 36.1744H52.3549C54.8449 36.1744 56.94 34.2104 56.9989 31.7168C57.0129 31.1081 56.9054 30.5027 56.6827 29.9361C56.46 29.3696 56.1266 28.8533 55.702 28.4176C55.2774 27.9818 54.7703 27.6354 54.2103 27.3987C53.6503 27.162 53.0487 27.0396 52.4409 27.0389H40.9147L42.2362 24.983C45.1975 24.1676 47.7631 22.3039 49.457 19.7377C51.1508 17.1714 51.858 14.0768 51.4474 11.0279C51.0367 7.97898 49.5361 5.18278 47.2239 3.158C44.9116 1.13323 41.9447 0.017334 38.8736 0.017334C35.8025 0.017334 32.8356 1.13323 30.5234 3.158C28.2112 5.18278 26.7105 7.97898 26.2999 11.0279C25.8892 14.0768 26.5964 17.1714 28.2903 19.7377C29.9842 22.3039 32.5497 24.1676 35.511 24.983L37.9296 28.7454C37.9298 28.7457 37.93 28.7461 37.9303 28.7464C38.0301 28.9058 38.1685 29.0374 38.3326 29.1288C38.4968 29.2203 38.6814 29.2686 38.8692 29.2694H52.383C53.6465 29.2694 54.724 30.2517 54.7718 31.5164C54.7835 31.8306 54.732 32.144 54.6202 32.4377C54.5084 32.7315 54.3386 32.9997 54.121 33.2263C53.9035 33.4529 53.6425 33.6332 53.3538 33.7565C53.0651 33.8798 52.7545 33.9436 52.4407 33.944H36.1604C33.5665 33.944 31.3655 36.07 31.3818 38.6687C31.3841 39.2916 31.5109 39.9078 31.7548 40.4808C31.9987 41.0538 32.3547 41.5721 32.8017 42.0051C33.7014 42.8659 34.9005 43.3419 36.1446 43.3322C39.3873 43.3322 44.1535 43.3322 47.7267 43.3315C48.7102 43.3226 49.6588 43.6966 50.3723 44.3748C50.7337 44.7247 51.0208 45.1443 51.2161 45.6083C51.4114 46.0722 51.5109 46.571 51.5087 47.0745V47.1276C51.5172 48.077 51.1574 48.9926 50.5053 49.6815C50.1733 50.0273 49.7749 50.3021 49.3339 50.4894C48.893 50.6767 48.4188 50.7726 47.9399 50.7713L15.7763 50.77L17.3371 48.3415C20.5472 47.4673 23.3314 45.4552 25.172 42.6793C27.0127 39.9033 27.7846 36.5523 27.3444 33.2491C26.9042 29.9459 25.2817 26.9151 22.7786 24.7201C20.2755 22.5251 17.062 21.3151 13.7353 21.3151C10.4086 21.3151 7.19508 22.5251 4.69196 24.7201C2.18884 26.9151 0.566399 29.9459 0.12618 33.2491C-0.31404 36.5523 0.457909 39.9033 2.29855 42.6793C4.13919 45.4552 6.92333 47.4673 10.1335 48.3415L12.7918 52.4763C12.7932 52.4785 12.7965 52.4836 12.8014 52.4911C12.9021 52.6474 13.0404 52.7759 13.2035 52.8648C13.3666 52.9537 13.5494 53.0003 13.7351 53.0002L47.9398 53.0022C49.458 53.0065 50.9165 52.4096 51.9975 51.3415C52.5534 50.7857 52.9933 50.1246 53.2916 49.3967C53.5899 48.6689 53.7406 47.8888 53.735 47.102V47.0749C53.7375 46.2919 53.5859 45.516 53.2887 44.7917C52.9915 44.0675 52.5547 43.409 52.0031 42.8542C51.4515 42.2993 50.7961 41.8589 50.0744 41.5581C49.3526 41.2574 48.5787 41.1022 47.7971 41.1015H47.7964C44.2064 41.1015 39.3833 41.102 36.1189 41.1021C35.4736 41.1087 34.8503 40.8677 34.3769 40.4284C34.1265 40.1921 33.9287 39.9056 33.7963 39.5875C33.664 39.2694 33.6001 38.927 33.6088 38.5825C33.6385 37.2346 34.7755 36.1743 36.1211 36.1743V36.1744ZM36.4655 22.9254C33.9686 22.334 31.7755 20.8443 30.303 18.7394C28.8305 16.6345 28.1811 14.0611 28.4783 11.508C28.7755 8.95502 29.9985 6.60031 31.915 4.89131C33.8315 3.18232 36.3079 2.23812 38.8737 2.23812C41.4395 2.23812 43.9159 3.18232 45.8324 4.89131C47.7488 6.60031 48.9719 8.95502 49.2691 11.508C49.5663 14.0611 48.9169 16.6345 47.4444 18.7394C45.9718 20.8443 43.7788 22.334 41.2818 22.9254C41.0012 22.9916 40.7571 23.1643 40.601 23.4072L38.8737 26.0949L37.1463 23.4072C36.9902 23.1643 36.7462 22.9916 36.4655 22.9254ZM11.0875 46.2831C8.34169 45.6328 5.93004 43.9947 4.31076 41.6801C2.69147 39.3655 1.97738 36.5356 2.30415 33.7282C2.63093 30.9208 3.97581 28.3314 6.08326 26.4521C8.19071 24.5728 10.9139 23.5346 13.7353 23.5346C16.5568 23.5346 19.28 24.5728 21.3874 26.4521C23.4949 28.3314 24.8397 30.9208 25.1665 33.7282C25.4933 36.5356 24.7792 39.3655 23.1599 41.6801C21.5406 43.9947 19.129 45.6328 16.3832 46.2831C16.1025 46.3493 15.8584 46.522 15.7023 46.7649L13.7354 49.825L11.7682 46.7648C11.6121 46.522 11.3681 46.3493 11.0875 46.2831Z" fill="#383943"/>
<path d="M13.7352 42.2168C17.6811 42.2168 20.8799 39.012 20.8799 35.0586C20.8799 31.1053 17.6811 27.9005 13.7352 27.9005C9.7893 27.9005 6.59051 31.1053 6.59051 35.0586C6.59051 39.012 9.7893 42.2168 13.7352 42.2168Z" fill="#A4FCC4"/>
<path d="M38.8735 6.15106C40.17 6.15091 41.4375 6.53591 42.5156 7.25738C43.5937 7.97885 44.434 9.00439 44.9303 10.2043C45.4265 11.4042 45.5564 12.7246 45.3036 13.9985C45.0508 15.2723 44.4265 16.4425 43.5098 17.361C42.593 18.2794 41.425 18.9049 40.1534 19.1584C38.8818 19.4118 37.5637 19.2818 36.3659 18.7848C35.168 18.2878 34.1442 17.4461 33.4239 16.3662C32.7035 15.2863 32.3191 14.0166 32.3191 12.7178C32.319 10.9763 33.0095 9.30611 34.2387 8.0746C35.4679 6.8431 37.135 6.15118 38.8735 6.15106Z" fill="#B2F0FB"/>
</svg>
