<svg width="24" height="24" viewBox="0 0 24 24" fill="none" xmlns="http://www.w3.org/2000/svg">
<g id="Iconly/Bold/Notification">
<g id="Notification">
<path id="Notification_2" fill-rule="evenodd" clip-rule="evenodd" d="M18.7106 9.52026C18.8862 10.3915 19.2906 11.2011 19.8826 11.867C20.2506 12.4143 20.4638 13.0498 20.4999 13.7071V13.9115C20.5054 14.7984 20.1876 15.6573 19.6052 16.3294C18.8671 17.1186 17.8657 17.6145 16.7871 17.725C13.6005 18.1339 10.3743 18.1339 7.1877 17.725C6.09645 17.6229 5.0809 17.1263 4.33382 16.3294C3.76973 15.6508 3.47393 14.7912 3.50181 13.9115V13.7071C3.53672 13.0523 3.74336 12.4179 4.10121 11.867C4.69585 11.2005 5.10588 10.3918 5.29107 9.52026C5.31791 9.18247 5.31791 8.84246 5.31791 8.50245C5.31791 8.16243 5.31791 7.82242 5.34475 7.48463C5.68471 4.24008 8.81593 2 11.9472 2H12.0366C15.1321 2 18.3259 4.24008 18.6569 7.48463C18.6838 7.81798 18.6838 8.15799 18.6838 8.49911C18.6838 8.84023 18.6838 9.18247 18.7106 9.52026ZM13.1639 19.085C13.6612 19.0997 14.1495 19.221 14.5953 19.4406H14.6221C14.9946 19.7445 15.0578 20.2868 14.7653 20.6673C14.2325 21.4297 13.3801 21.9104 12.4482 21.974C11.4907 22.0882 10.5265 21.8231 9.76425 21.2362C9.37223 20.9674 9.11748 20.5423 9.06643 20.0717C9.06643 19.5739 9.53164 19.3428 9.96107 19.245C10.464 19.1391 10.9767 19.0855 11.4909 19.085H13.1639Z" fill="#200E32"/>
</g>
</g>
</svg>
