<svg width="63" height="54" viewBox="0 0 63 54" fill="none" xmlns="http://www.w3.org/2000/svg">
<path d="M37.5235 16.2598C34.1485 16.2598 31.5 20.0985 31.5 20.0985C31.5 20.0985 29.0021 16.2599 25.4755 16.2599C22.0452 16.2599 19.244 19.1458 19.0607 22.6401C18.9575 24.6142 19.5813 26.1169 20.4602 27.4772C22.2167 30.1957 31.5112 36.4879 31.5112 36.4879C31.5112 36.4879 40.7707 30.2195 42.5389 27.4772C43.4197 26.1103 44.0419 24.6141 43.9382 22.6401C43.7549 19.1458 40.9536 16.2599 37.523 16.2599" fill="#FFBDBC"/>
<path d="M61.7695 41.308H60.615V5.11601C60.6135 3.76008 60.0848 2.46013 59.1448 1.50134C58.2049 0.542555 56.9305 0.00323713 55.6012 0.00170898H7.39881C6.06953 0.00323713 4.79512 0.542555 3.85518 1.50134C2.91523 2.46013 2.38652 3.76008 2.38502 5.11601V41.3081H1.23047C0.904128 41.3081 0.591154 41.4403 0.360396 41.6757C0.129638 41.9111 0 42.2304 0 42.5632L0 47.2582C0.00166093 48.7809 0.595402 50.2408 1.65096 51.3176C2.70652 52.3943 4.1377 53 5.6305 53.0017H57.3694C58.8622 53 60.2934 52.3944 61.3489 51.3176C62.4045 50.2409 62.9983 48.7811 63 47.2583V42.5634C63 42.2305 62.8704 41.9112 62.6396 41.6758C62.4088 41.4405 62.0959 41.308 61.7695 41.308ZM7.39881 2.51198H55.6012C56.278 2.51274 56.9269 2.78733 57.4055 3.27548C57.884 3.76364 58.1533 4.42551 58.154 5.11589V8.60981H4.84595V5.11601C4.8467 4.42561 5.11591 3.76371 5.5945 3.27553C6.07309 2.78734 6.72198 2.51274 7.39881 2.51198ZM4.84595 11.1201H58.154V41.308H40.4065C40.0802 41.308 39.7672 41.4402 39.5364 41.6756C39.3057 41.911 39.176 42.2302 39.176 42.5631C39.1754 42.9485 39.0251 43.3179 38.7579 43.5904C38.4908 43.8629 38.1286 44.0162 37.7508 44.0168H25.2492C24.8714 44.0162 24.5092 43.8629 24.2421 43.5904C23.9749 43.3179 23.8246 42.9485 23.824 42.5631C23.824 42.2302 23.6943 41.911 23.4636 41.6756C23.2328 41.4402 22.9198 41.308 22.5935 41.308H4.84595V11.1201ZM60.5391 47.2582C60.5381 48.1154 60.2039 48.9372 59.6096 49.5433C59.0154 50.1494 58.2097 50.4904 57.3694 50.4913H5.6305C4.79015 50.4903 3.98449 50.1494 3.39028 49.5432C2.79607 48.9371 2.46185 48.1153 2.46094 47.2581V43.8182H21.5626C21.8217 44.6066 22.3169 45.2921 22.9783 45.7781C23.6397 46.2641 24.434 46.5261 25.2491 46.5271H37.7508C38.5659 46.5261 39.3602 46.2641 40.0216 45.7781C40.6831 45.2921 41.1782 44.6066 41.4374 43.8182H60.5391V47.2582Z" fill="#383943"/>
<path d="M30.8088 6.66787H32.1912C32.5175 6.66787 32.8305 6.53563 33.0612 6.30024C33.292 6.06486 33.4216 5.74561 33.4216 5.41273C33.4216 5.07985 33.292 4.7606 33.0612 4.52521C32.8305 4.28983 32.5175 4.15759 32.1912 4.15759H30.8088C30.4825 4.15759 30.1695 4.28983 29.9388 4.52521C29.708 4.7606 29.5784 5.07985 29.5784 5.41273C29.5784 5.74561 29.708 6.06486 29.9388 6.30024C30.1695 6.53563 30.4825 6.66787 30.8088 6.66787Z" fill="#383943"/>
<path d="M50.0939 25.4629H51.3878C51.7142 25.4629 52.0271 25.3307 52.2579 25.0953C52.4886 24.8599 52.6183 24.5407 52.6183 24.2078C52.6183 23.8749 52.4886 23.5556 52.2579 23.3203C52.0271 23.0849 51.7142 22.9526 51.3878 22.9526H50.0939C49.7675 22.9526 49.4545 23.0849 49.2238 23.3203C48.993 23.5556 48.8634 23.8749 48.8634 24.2078C48.8634 24.5407 48.993 24.8599 49.2238 25.0953C49.4545 25.3307 49.7675 25.4629 50.0939 25.4629Z" fill="#383943"/>
<path d="M46.9866 18.3532C47.1482 18.3534 47.3082 18.321 47.4576 18.2579C47.6069 18.1948 47.7425 18.1023 47.8566 17.9855L48.7715 17.0523C48.8865 16.936 48.978 16.7976 49.0404 16.6451C49.1029 16.4926 49.1353 16.329 49.1356 16.1637C49.136 15.9984 49.1043 15.8347 49.0424 15.6819C48.9806 15.5291 48.8898 15.3903 48.7752 15.2734C48.6606 15.1566 48.5245 15.0639 48.3747 15.0009C48.2249 14.9378 48.0644 14.9055 47.9024 14.9059C47.7403 14.9063 47.58 14.9393 47.4305 15.003C47.281 15.0668 47.1453 15.1601 47.0312 15.2775L46.1164 16.2107C45.9443 16.3862 45.8272 16.6098 45.7797 16.8533C45.7323 17.0968 45.7567 17.3491 45.8498 17.5784C45.9429 17.8078 46.1007 18.0038 46.303 18.1417C46.5053 18.2796 46.7432 18.3532 46.9866 18.3532Z" fill="#383943"/>
<path d="M47.0313 33.138C47.1454 33.2554 47.2811 33.3487 47.4306 33.4124C47.5801 33.4762 47.7405 33.5092 47.9025 33.5096C48.0646 33.5099 48.2251 33.4776 48.3749 33.4145C48.5246 33.3515 48.6607 33.2588 48.7753 33.1419C48.8899 33.0251 48.9807 32.8863 49.0425 32.7335C49.1044 32.5807 49.136 32.417 49.1357 32.2517C49.1353 32.0864 49.103 31.9228 49.0405 31.7703C48.978 31.6178 48.8866 31.4794 48.7715 31.363L47.8566 30.4302C47.6259 30.1948 47.3129 30.0626 46.9865 30.0626C46.6602 30.0625 46.3472 30.1948 46.1164 30.4302C45.8857 30.6655 45.756 30.9848 45.756 31.3177C45.756 31.6506 45.8856 31.9698 46.1164 32.2052L47.0313 33.138Z" fill="#383943"/>
<path d="M12.906 22.9526H11.6122C11.2858 22.9526 10.9729 23.0849 10.7421 23.3203C10.5113 23.5556 10.3817 23.8749 10.3817 24.2078C10.3817 24.5407 10.5113 24.8599 10.7421 25.0953C10.9729 25.3307 11.2858 25.4629 11.6122 25.4629H12.906C13.2324 25.4629 13.5453 25.3307 13.7761 25.0953C14.0068 24.8599 14.1365 24.5407 14.1365 24.2078C14.1365 23.8749 14.0068 23.5556 13.7761 23.3203C13.5453 23.0849 13.2324 22.9526 12.906 22.9526Z" fill="#383943"/>
<path d="M15.1433 30.4302L14.2284 31.3634C14.1141 31.48 14.0235 31.6183 13.9616 31.7706C13.8998 31.9229 13.868 32.0861 13.868 32.2509C13.868 32.4158 13.8998 32.579 13.9616 32.7313C14.0234 32.8836 14.1141 33.0219 14.2283 33.1385C14.3426 33.255 14.4782 33.3475 14.6275 33.4106C14.7768 33.4737 14.9368 33.5061 15.0984 33.5062C15.26 33.5062 15.42 33.4737 15.5693 33.4106C15.7186 33.3476 15.8543 33.2551 15.9685 33.1386L16.8834 32.2054C17.1142 31.97 17.2438 31.6507 17.2438 31.3178C17.2438 30.9849 17.1142 30.6657 16.8834 30.4303C16.6527 30.1949 16.3397 30.0626 16.0134 30.0626C15.687 30.0626 15.374 30.1948 15.1433 30.4302Z" fill="#383943"/>
<path d="M15.9687 15.2772C15.7379 15.0418 15.4249 14.9095 15.0985 14.9095C14.7722 14.9095 14.4592 15.0418 14.2284 15.2772C13.9976 15.5126 13.868 15.8319 13.868 16.1648C13.868 16.4977 13.9976 16.8169 14.2284 17.0523L15.1433 17.9855C15.374 18.2209 15.687 18.3531 16.0134 18.3531C16.3397 18.3531 16.6527 18.2209 16.8834 17.9855C17.1142 17.7501 17.2438 17.4308 17.2438 17.0979C17.2438 16.765 17.1142 16.4458 16.8834 16.2104L15.9687 15.2772Z" fill="#383943"/>
</svg>
