<svg width="58" height="69" viewBox="0 0 58 69" fill="none" xmlns="http://www.w3.org/2000/svg">
<path d="M57.6074 21.5177C57.7319 21.3926 57.8306 21.2439 57.8979 21.0802C57.9653 20.9166 58 20.7412 58 20.564C58 20.3868 57.9653 20.2114 57.8979 20.0477C57.8306 19.8841 57.7319 19.7354 57.6074 19.6103L50.4839 12.446C50.2331 12.1937 49.8932 12.0521 49.5389 12.0521C49.1845 12.0521 48.8446 12.1937 48.5939 12.446L44.9308 16.1294C41.6608 13.9233 37.9712 12.4263 34.0963 11.7335C35.0146 10.7347 35.6238 9.4877 35.8493 8.14532C36.0748 6.80295 35.9068 5.42345 35.3659 4.1758C34.825 2.92816 33.9347 1.86655 32.804 1.12102C31.6733 0.375482 30.3513 -0.0216064 29 -0.0216064C27.6487 -0.0216064 26.3267 0.375482 25.196 1.12102C24.0653 1.86655 23.175 2.92816 22.6341 4.1758C22.0932 5.42345 21.9252 6.80295 22.1507 8.14532C22.3762 9.4877 22.9854 10.7347 23.9037 11.7335C20.0288 12.4263 16.3392 13.9233 13.0692 16.1294L9.40614 12.446C9.15536 12.1937 8.81549 12.0521 8.46113 12.0521C8.10677 12.0521 7.7669 12.1937 7.51611 12.446L0.392584 19.6103C0.268138 19.7354 0.169411 19.8841 0.102049 20.0477C0.0346881 20.2114 1.52588e-05 20.3868 1.52588e-05 20.564C1.52588e-05 20.7412 0.0346881 20.9166 0.102049 21.0802C0.169411 21.2439 0.268138 21.3926 0.392584 21.5177L4.2945 25.4424C1.72293 29.8295 0.349354 34.8242 0.313231 39.9191C0.277109 45.0141 1.57973 50.028 4.08883 54.4517C6.59793 58.8754 10.2242 62.5515 14.5994 65.1066C18.9746 67.6618 23.9429 69.005 29 69C34.0579 69.0071 39.0275 67.6651 43.4039 65.1104C47.7803 62.5558 51.4076 58.8794 53.9171 54.455C56.4266 50.0305 57.7289 45.0157 57.6917 39.9199C57.6546 34.8241 56.2793 29.829 53.7055 25.4422L57.6074 21.5177ZM49.5389 15.304L54.7689 20.564L52.1987 23.1489C50.7349 21.1394 49.0237 19.3254 47.1062 17.7503L49.5389 15.304ZM29 2.69528C30.0144 2.69268 30.9965 3.05485 31.7695 3.71664C32.5425 4.37843 33.0558 5.29641 33.2171 6.30546C33.3783 7.31451 33.1769 8.34841 32.649 9.22119C32.1212 10.094 31.3016 10.7484 30.3376 11.0666V7.95222C30.3376 7.5948 30.1967 7.25201 29.9458 6.99928C29.695 6.74654 29.3548 6.60456 29 6.60456C28.6452 6.60456 28.305 6.74654 28.0542 6.99928C27.8033 7.25201 27.6624 7.5948 27.6624 7.95222V11.0666C26.6984 10.7484 25.8788 10.094 25.351 9.22119C24.8231 8.34841 24.6217 7.31451 24.7829 6.30546C24.9442 5.29641 25.4575 4.37843 26.2305 3.71664C27.0035 3.05485 27.9856 2.69268 29 2.69528ZM3.23097 20.564L8.46099 15.304L10.8936 17.7503C8.97606 19.3254 7.26486 21.1394 5.80104 23.1489L3.23097 20.564ZM29 66.3046C14.6541 66.3046 2.98298 54.5678 2.98298 40.1411C2.98298 25.7145 14.6541 13.9777 29 13.9777C43.3459 13.9777 55.017 25.7146 55.017 40.1413C55.017 54.5679 43.3458 66.3046 29 66.3046Z" fill="#383943"/>
<path d="M29 60.7227C40.3022 60.7227 49.4645 51.508 49.4645 40.1411C49.4645 28.7742 40.3022 19.5596 29 19.5596C17.6978 19.5596 8.53549 28.7742 8.53549 40.1411C8.53549 51.508 17.6978 60.7227 29 60.7227Z" fill="#FFF59B"/>
<path d="M29 26.3903C28.6452 26.3903 28.305 26.2483 28.0542 25.9956C27.8033 25.7428 27.6624 25.4001 27.6624 25.0426V24.5829C27.6624 24.2255 27.8033 23.8827 28.0542 23.63C28.305 23.3773 28.6452 23.2353 29 23.2353C29.3547 23.2353 29.695 23.3773 29.9458 23.63C30.1967 23.8827 30.3376 24.2255 30.3376 24.5829V25.0426C30.3376 25.4001 30.1967 25.7428 29.9458 25.9956C29.695 26.2483 29.3547 26.3903 29 26.3903Z" fill="#383943"/>
<path d="M29 57.0471C28.6452 57.0471 28.305 56.9051 28.0542 56.6524C27.8033 56.3996 27.6624 56.0569 27.6624 55.6994V55.2397C27.6624 54.8823 27.8033 54.5395 28.0542 54.2868C28.305 54.0341 28.6452 53.8921 29 53.8921C29.3547 53.8921 29.695 54.0341 29.9458 54.2868C30.1967 54.5395 30.3376 54.8823 30.3376 55.2397V55.6994C30.3376 56.0569 30.1967 56.3996 29.9458 56.6524C29.695 56.9051 29.3547 57.0471 29 57.0471Z" fill="#383943"/>
<path d="M44.4421 41.4888H43.9857C43.6309 41.4888 43.2907 41.3468 43.0399 41.094C42.789 40.8413 42.6481 40.4985 42.6481 40.1411C42.6481 39.7837 42.789 39.4409 43.0399 39.1882C43.2907 38.9354 43.6309 38.7935 43.9857 38.7935H44.4421C44.7968 38.7935 45.1371 38.9354 45.3879 39.1882C45.6388 39.4409 45.7797 39.7837 45.7797 40.1411C45.7797 40.4985 45.6388 40.8413 45.3879 41.094C45.1371 41.3468 44.7968 41.4888 44.4421 41.4888Z" fill="#383943"/>
<path d="M14.0142 41.4888H13.5578C13.203 41.4888 12.8628 41.3468 12.612 41.094C12.3611 40.8413 12.2202 40.4985 12.2202 40.1411C12.2202 39.7837 12.3611 39.4409 12.612 39.1882C12.8628 38.9354 13.203 38.7935 13.5578 38.7935H14.0142C14.3689 38.7935 14.7092 38.9354 14.96 39.1882C15.2109 39.4409 15.3518 39.7837 15.3518 40.1411C15.3518 40.4985 15.2109 40.8413 14.96 41.094C14.7092 41.3468 14.3689 41.4888 14.0142 41.4888Z" fill="#383943"/>
<path d="M39.5966 30.8127C39.332 30.8127 39.0734 30.7337 38.8534 30.5856C38.6334 30.4375 38.4619 30.227 38.3607 29.9807C38.2595 29.7344 38.233 29.4634 38.2846 29.202C38.3363 28.9405 38.4637 28.7004 38.6508 28.5119L38.9734 28.1869C39.2251 27.9382 39.5641 27.7996 39.9167 27.8014C40.2692 27.8032 40.6068 27.9451 40.8561 28.1963C41.1053 28.4476 41.246 28.7878 41.2476 29.143C41.2492 29.4982 41.1115 29.8397 40.8645 30.0932L40.5419 30.4182C40.4178 30.5434 40.2705 30.6427 40.1083 30.7103C39.9461 30.778 39.7722 30.8128 39.5966 30.8127Z" fill="#383943"/>
<path d="M18.0807 52.4901C17.8162 52.49 17.5576 52.4109 17.3377 52.2628C17.1178 52.1147 16.9464 51.9042 16.8453 51.6579C16.7441 51.4117 16.7177 51.1407 16.7693 50.8793C16.821 50.6179 16.9484 50.3778 17.1355 50.1894L17.4581 49.8643C17.709 49.6116 18.0492 49.4696 18.404 49.4696C18.7587 49.4696 19.099 49.6116 19.3499 49.8643C19.6007 50.1171 19.7417 50.4599 19.7417 50.8173C19.7417 51.1748 19.6007 51.5176 19.3499 51.7703L19.0272 52.0954C18.9031 52.2208 18.7555 52.3202 18.5931 52.388C18.4307 52.4557 18.2565 52.4904 18.0807 52.4901Z" fill="#383943"/>
<path d="M39.9192 52.4901C39.7436 52.4903 39.5696 52.4556 39.4072 52.3878C39.2449 52.3201 39.0975 52.2207 38.9734 52.0954L38.6508 51.7703C38.5266 51.6452 38.4281 51.4966 38.3608 51.3331C38.2936 51.1696 38.259 50.9943 38.259 50.8173C38.259 50.6404 38.2936 50.4651 38.3608 50.3016C38.4281 50.1381 38.5266 49.9895 38.6508 49.8643C38.775 49.7392 38.9225 49.6399 39.0848 49.5722C39.2471 49.5045 39.421 49.4696 39.5967 49.4696C39.7724 49.4696 39.9463 49.5045 40.1086 49.5722C40.2709 49.6399 40.4184 49.7392 40.5426 49.8643L40.8652 50.1894C41.0523 50.3779 41.1798 50.618 41.2314 50.8795C41.283 51.1409 41.2565 51.4119 41.1553 51.6582C41.054 51.9045 40.8825 52.115 40.6625 52.2631C40.4425 52.4112 40.1838 52.4902 39.9192 52.4901Z" fill="#383943"/>
<path d="M18.4034 30.8127C18.2277 30.8129 18.0537 30.7781 17.8914 30.7104C17.7291 30.6426 17.5817 30.5433 17.4576 30.4179L17.1355 30.0932C16.8846 29.8404 16.7437 29.4976 16.7437 29.1402C16.7437 28.7827 16.8846 28.4399 17.1355 28.1872C17.3863 27.9344 17.7266 27.7924 18.0814 27.7924C18.4361 27.7924 18.7764 27.9344 19.0273 28.1872L19.3499 28.5122C19.537 28.7007 19.6644 28.9408 19.7161 29.2023C19.7677 29.4637 19.7412 29.7348 19.6399 29.981C19.5387 30.2273 19.3672 30.4378 19.1472 30.5859C18.9272 30.734 18.6685 30.813 18.4039 30.8129L18.4034 30.8127Z" fill="#383943"/>
<path d="M37.0001 38.5916H33.6189C33.3971 37.8595 33.0001 37.1936 32.463 36.6523C31.9258 36.1111 31.2648 35.7112 30.5382 35.4877V31.2684C30.5382 30.911 30.3973 30.5682 30.1465 30.3155C29.8956 30.0628 29.5554 29.9208 29.2006 29.9208C28.8459 29.9208 28.5057 30.0628 28.2548 30.3155C28.004 30.5682 27.863 30.911 27.863 31.2684V35.4877C27.0995 35.7206 26.409 36.1489 25.8587 36.7308C25.3084 37.3127 24.9172 38.0283 24.7232 38.8079C24.5291 39.5875 24.539 40.4044 24.7516 41.1791C24.9643 41.9537 25.3726 42.6596 25.9367 43.2279C26.5008 43.7962 27.2014 44.2076 27.9703 44.4218C28.7391 44.6361 29.55 44.646 30.3237 44.4505C31.0975 44.255 31.8078 43.8608 32.3853 43.3063C32.9629 42.7519 33.388 42.0562 33.6191 41.2869H37.0003C37.3551 41.2869 37.6953 41.1449 37.9461 40.8922C38.197 40.6395 38.3379 40.2967 38.3379 39.9393C38.3379 39.5818 38.197 39.2391 37.9461 38.9863C37.6953 38.7336 37.3551 38.5916 37.0003 38.5916H37.0001ZM29.2006 41.8948C28.8168 41.8948 28.4415 41.7801 28.1224 41.5652C27.8032 41.3504 27.5545 41.045 27.4076 40.6876C27.2607 40.3303 27.2223 39.9372 27.2972 39.5579C27.3721 39.1786 27.5569 38.8301 27.8284 38.5567C28.0998 38.2832 28.4456 38.097 28.8221 38.0215C29.1986 37.9461 29.5888 37.9848 29.9434 38.1328C30.2981 38.2808 30.6012 38.5314 30.8145 38.8529C31.0278 39.1745 31.1416 39.5525 31.1416 39.9393C31.141 40.4577 30.9363 40.9548 30.5725 41.3214C30.2086 41.688 29.7152 41.8942 29.2006 41.8948Z" fill="#383943"/>
</svg>
